<svg width="173.000000" height="40.000000" viewBox="0 0 173 40" fill="none" xmlns="http://www.w3.org/2000/svg" xmlns:xlink="http://www.w3.org/1999/xlink">
	<desc>
			Created with Pixso.
	</desc>
	<defs/>
	<path id="художественная галерея" d="M31.27 32.84C31.27 34.06 30.96 35.01 30.33 35.69Q30.12 35.93 29.87 36.11Q29.01 36.72 27.72 36.72C27.03 36.72 26.41 36.56 25.88 36.25C25.34 35.93 24.93 35.48 24.64 34.89Q24.21 34.01 24.21 32.84C24.21 31.63 24.52 30.69 25.14 30.01Q25.33 29.81 25.55 29.64Q26.41 29 27.76 29Q28.9 29 29.71 29.51Q30.05 29.73 30.32 30.04Q30.41 30.14 30.49 30.24Q31.27 31.24 31.27 32.84ZM47.45 36.72C46.29 36.72 45.39 36.38 44.73 35.71Q44.62 35.59 44.51 35.46L44.51 35.46Q43.75 34.48 43.75 32.91Q43.75 31.1 44.65 30.06Q44.66 30.05 44.66 30.04C45.27 29.34 46.1 29 47.16 29C48.15 29 48.92 29.29 49.49 29.89C50.06 30.49 50.35 31.31 50.35 32.36L50.35 33.21L45.38 33.21C45.41 33.94 45.6 34.49 45.97 34.88C46.34 35.27 46.86 35.46 47.53 35.46C47.97 35.46 48.38 35.42 48.75 35.34C49.14 35.26 49.54 35.12 49.98 34.92L49.98 36.21C49.59 36.4 49.2 36.53 48.81 36.6Q48.21 36.72 47.45 36.72ZM55.15 36.72C54.03 36.72 53.17 36.39 52.58 35.73Q51.7 34.74 51.7 32.9C51.7 31.64 52.01 30.68 52.62 30.01Q52.77 29.84 52.94 29.71L52.94 29.71Q53.82 29 55.28 29Q56.46 29 57.41 29.43L56.93 30.71C56.26 30.45 55.7 30.32 55.27 30.32C53.98 30.32 53.34 31.17 53.34 32.88C53.34 33.72 53.49 34.35 53.81 34.77Q53.96 34.96 54.14 35.09Q54.58 35.4 55.23 35.4C55.93 35.4 56.6 35.22 57.23 34.87L57.23 36.25C56.95 36.42 56.64 36.54 56.32 36.61C56 36.68 55.61 36.72 55.15 36.72ZM77.61 36.72C76.45 36.72 75.55 36.38 74.89 35.71Q74.78 35.59 74.68 35.46L74.68 35.46Q73.91 34.48 73.91 32.91Q73.91 31.1 74.81 30.06Q74.82 30.05 74.82 30.04C75.43 29.34 76.26 29 77.32 29C78.31 29 79.08 29.29 79.66 29.89C80.23 30.49 80.51 31.31 80.51 32.36L80.51 33.21L75.54 33.21C75.57 33.94 75.76 34.49 76.13 34.88C76.5 35.27 77.02 35.46 77.69 35.46C78.13 35.46 78.54 35.42 78.91 35.34C79.3 35.26 79.7 35.12 80.14 34.92L80.14 36.21C79.75 36.4 79.36 36.53 78.97 36.6C78.57 36.68 78.12 36.72 77.61 36.72ZM104.87 36.58L104.55 35.54L104.5 35.54C104.14 36 103.78 36.31 103.41 36.47C103.05 36.64 102.58 36.72 102.01 36.72Q101.02 36.72 100.42 36.23L100.41 36.23Q100.35 36.18 100.29 36.12C99.89 35.73 99.68 35.17 99.68 34.45C99.68 33.68 99.97 33.1 100.54 32.71Q101.39 32.12 103.15 32.07L104.43 32.03L104.43 31.63Q104.43 30.92 104.1 30.57C103.88 30.33 103.53 30.21 103.06 30.21Q102.56 30.21 102.09 30.34L102.08 30.34Q102.02 30.36 101.97 30.38C101.62 30.49 101.28 30.62 100.96 30.77L100.44 29.64C100.85 29.43 101.29 29.27 101.77 29.16C102.25 29.05 102.7 29 103.13 29C104.08 29 104.79 29.2 105.27 29.61C105.76 30.03 106 30.68 106 31.56L106 36.58L104.87 36.58ZM130.64 36.58L130.32 35.54L130.27 35.54C129.91 36 129.55 36.31 129.18 36.47C128.82 36.64 128.35 36.72 127.78 36.72Q126.79 36.72 126.18 36.23L126.18 36.23Q126.12 36.18 126.06 36.12C125.65 35.73 125.45 35.17 125.45 34.45C125.45 33.68 125.73 33.1 126.3 32.71C126.88 32.32 127.74 32.1 128.91 32.07L130.2 32.03L130.2 31.63Q130.2 30.92 129.86 30.57C129.64 30.33 129.3 30.21 128.83 30.21Q128.33 30.21 127.86 30.34L127.84 30.34Q127.79 30.36 127.73 30.38C127.38 30.49 127.05 30.62 126.72 30.77L126.21 29.64C126.61 29.43 127.06 29.27 127.54 29.16C128.02 29.05 128.47 29 128.9 29C129.85 29 130.56 29.2 131.04 29.61C131.53 30.03 131.77 30.68 131.77 31.56L131.77 36.58L130.64 36.58ZM145.63 36.72C144.47 36.72 143.56 36.38 142.91 35.71Q142.79 35.59 142.69 35.46L142.69 35.46Q141.93 34.48 141.93 32.91Q141.93 31.1 142.83 30.06Q142.83 30.05 142.84 30.04C143.45 29.34 144.28 29 145.34 29C146.32 29 147.1 29.29 147.67 29.89C148.24 30.49 148.53 31.31 148.53 32.36L148.53 33.21L143.56 33.21C143.58 33.94 143.78 34.49 144.15 34.88C144.52 35.27 145.03 35.46 145.7 35.46C146.14 35.46 146.55 35.42 146.93 35.34C147.31 35.26 147.72 35.12 148.16 34.92L148.16 36.21C147.77 36.4 147.38 36.53 146.98 36.6Q146.39 36.72 145.63 36.72ZM154.11 36.72Q153.22 36.72 152.59 36.32Q152.2 36.08 151.91 35.7L151.82 35.7Q151.91 36.64 151.91 36.85L151.91 39.9L150.33 39.9L150.33 29.13L151.61 29.13C151.64 29.27 151.72 29.6 151.83 30.13L151.91 30.13Q152.21 29.67 152.62 29.4Q153.24 29 154.13 29C155.06 29 155.79 29.33 156.3 30.01C156.82 30.68 157.09 31.63 157.09 32.84C157.09 34.06 156.82 35.01 156.29 35.69Q155.97 36.11 155.56 36.35Q154.94 36.72 154.11 36.72ZM162.18 36.72C161.02 36.72 160.11 36.38 159.46 35.71Q159.34 35.59 159.24 35.46L159.24 35.46Q158.48 34.48 158.48 32.91Q158.48 31.1 159.38 30.06Q159.38 30.05 159.39 30.04C160 29.34 160.83 29 161.89 29C162.87 29 163.65 29.29 164.22 29.89C164.79 30.49 165.08 31.31 165.08 32.36L165.08 33.21L160.11 33.21C160.13 33.94 160.33 34.49 160.7 34.88C161.07 35.27 161.58 35.46 162.25 35.46C162.69 35.46 163.1 35.42 163.48 35.34C163.86 35.26 164.27 35.12 164.71 34.92L164.71 36.21C164.32 36.4 163.93 36.53 163.53 36.6Q162.94 36.72 162.18 36.72ZM2.78 32.78L0.28 29.13L2.09 29.13L3.79 31.74L5.5 29.13L7.29 29.13L4.79 32.78L7.42 36.58L5.63 36.58L3.79 33.79L1.96 36.58L0.16 36.58L2.78 32.78ZM7.6 29.13L9.32 29.13L10.84 33.35C11.07 33.96 11.22 34.52 11.3 35.05L11.35 35.05C11.39 34.81 11.46 34.51 11.57 34.16Q11.73 33.62 13.28 29.13L14.99 29.13L11.81 37.57C11.23 39.12 10.26 39.9 8.91 39.9C8.56 39.9 8.22 39.86 7.89 39.78L7.89 38.53Q8.24 38.61 8.7 38.61Q9.1 38.61 9.42 38.45Q10.01 38.15 10.31 37.28L10.59 36.58L7.6 29.13ZM23.28 39.22L21.8 39.22L21.8 36.58L16.69 36.58L16.69 39.22L15.23 39.22L15.23 35.36L15.84 35.36C16.37 34.6 16.79 33.68 17.1 32.61C17.41 31.53 17.6 30.37 17.66 29.13L22.18 29.13L22.18 35.36L23.28 35.36L23.28 39.22ZM36.77 32.75L36.77 29.13L38.24 29.13L38.24 32.75L41.11 29.13L42.78 29.13L39.85 32.73L43.05 36.58L41.3 36.58L38.24 32.8L38.24 36.58L36.77 36.58L36.77 32.8L33.71 36.58L31.97 36.58L35.16 32.73L32.24 29.13L33.91 29.13L36.77 32.75ZM64.58 29.13L64.58 30.37L62.16 30.37L62.16 36.58L60.57 36.58L60.57 30.37L58.14 30.37L58.14 29.13L64.58 29.13ZM72.49 31.04C72.49 31.92 71.97 32.45 70.94 32.63L70.94 32.69C71.52 32.75 71.96 32.94 72.26 33.23C72.57 33.53 72.72 33.91 72.72 34.39Q72.72 35 72.45 35.45Q72.25 35.77 71.91 36.02C71.38 36.39 70.6 36.58 69.57 36.58L66.02 36.58L66.02 29.13L69.56 29.13C71.51 29.13 72.49 29.77 72.49 31.04ZM83.89 29.13L83.89 32.12L87.4 32.12L87.4 29.13L88.99 29.13L88.99 36.58L87.4 36.58L87.4 33.37L83.89 33.37L83.89 36.58L82.31 36.58L82.31 29.13L83.89 29.13ZM92.84 29.13L92.84 32.12L96.35 32.12L96.35 29.13L97.94 29.13L97.94 36.58L96.35 36.58L96.35 33.37L92.84 33.37L92.84 36.58L91.26 36.58L91.26 29.13L92.84 29.13ZM108.97 36.58L107.2 36.58L109.28 33.53C108.77 33.39 108.38 33.13 108.09 32.76C107.8 32.39 107.66 31.93 107.66 31.38Q107.66 30.72 107.96 30.24Q108.13 29.95 108.41 29.73C108.92 29.33 109.6 29.13 110.48 29.13L113.87 29.13L113.87 36.58L112.28 36.58L112.28 33.71L110.78 33.71L108.97 36.58ZM124.54 29.13L124.54 30.37L121.3 30.37L121.3 36.58L119.72 36.58L119.72 29.13L124.54 29.13ZM140.1 36.58L138.51 36.58L138.51 30.37L136.45 30.37C136.33 31.97 136.16 33.22 135.94 34.12C135.73 35.01 135.45 35.67 135.1 36.08C134.76 36.5 134.32 36.7 133.77 36.7C133.42 36.7 133.13 36.65 132.9 36.56L132.9 35.32C133.07 35.38 133.23 35.41 133.4 35.41Q133.46 35.41 133.51 35.4Q134.12 35.28 134.48 33.87C134.74 32.83 134.95 31.25 135.1 29.13L140.1 29.13L140.1 36.58ZM167.64 36.58L165.87 36.58L167.94 33.53C167.44 33.39 167.04 33.13 166.75 32.76C166.47 32.39 166.32 31.93 166.32 31.38C166.32 30.68 166.57 30.12 167.08 29.73C167.58 29.33 168.27 29.13 169.14 29.13L172.54 29.13L172.54 36.58L170.95 36.58L170.95 33.71L169.44 33.71L167.64 36.58ZM47.16 30.19Q46.63 30.19 46.24 30.43Q46.08 30.53 45.95 30.67Q45.5 31.15 45.41 32.07L48.79 32.07C48.78 31.45 48.64 30.99 48.35 30.67C48.06 30.35 47.67 30.19 47.16 30.19ZM77.32 30.19Q76.79 30.19 76.41 30.43Q76.25 30.53 76.11 30.67Q75.66 31.15 75.57 32.07L78.95 32.07C78.95 31.45 78.8 30.99 78.51 30.67C78.22 30.35 77.83 30.19 77.32 30.19ZM145.34 30.19Q144.81 30.19 144.42 30.43Q144.26 30.53 144.13 30.67Q143.67 31.15 143.59 32.07L146.97 32.07C146.96 31.45 146.81 30.99 146.53 30.67C146.24 30.35 145.84 30.19 145.34 30.19ZM161.89 30.19Q161.36 30.19 160.97 30.43Q160.81 30.53 160.68 30.67Q160.23 31.15 160.14 32.07L163.52 32.07C163.51 31.45 163.36 30.99 163.08 30.67C162.79 30.35 162.39 30.19 161.89 30.19ZM25.84 32.84Q25.84 34.51 26.64 35.1Q27.08 35.42 27.75 35.42Q28.41 35.42 28.84 35.11Q29.64 34.52 29.64 32.84C29.64 31.14 29 30.29 27.74 30.29Q27 30.29 26.56 30.65L26.56 30.65Q26.4 30.78 26.29 30.95Q25.84 31.61 25.84 32.84ZM153.72 30.29Q152.92 30.29 152.48 30.69Q152.41 30.76 152.34 30.84C152.05 31.21 151.91 31.8 151.91 32.61L151.91 32.84C151.91 33.75 152.05 34.41 152.34 34.82Q152.43 34.94 152.53 35.03L152.53 35.03Q152.97 35.42 153.75 35.42C154.3 35.42 154.72 35.2 155.02 34.75C155.31 34.3 155.46 33.66 155.46 32.83C155.46 31.99 155.31 31.36 155.02 30.94C154.72 30.5 154.29 30.29 153.72 30.29ZM70.9 31.17Q70.9 30.9 70.78 30.73Q70.69 30.61 70.55 30.53C70.32 30.4 69.98 30.33 69.52 30.33L67.6 30.33L67.6 32.12L69.28 32.12C69.81 32.12 70.22 32.05 70.49 31.92C70.76 31.78 70.9 31.53 70.9 31.17ZM109.2 31.39C109.2 31.78 109.35 32.06 109.63 32.26C109.93 32.45 110.32 32.54 110.81 32.54L112.28 32.54L112.28 30.33L110.56 30.33C110.13 30.33 109.79 30.42 109.55 30.61C109.32 30.79 109.2 31.05 109.2 31.39ZM167.87 31.39C167.87 31.78 168.01 32.06 168.3 32.26Q168.74 32.54 169.47 32.54L170.95 32.54L170.95 30.33L169.22 30.33C168.79 30.33 168.45 30.42 168.22 30.61C167.98 30.79 167.87 31.05 167.87 31.39ZM20.63 35.36L20.63 30.34L19.02 30.34Q18.99 30.68 18.94 31.02L18.94 31.02Q18.8 32.06 18.48 33.08Q18.08 34.43 17.49 35.36L20.63 35.36ZM102.51 35.5Q103.25 35.5 103.73 35.16L103.74 35.15Q103.82 35.1 103.89 35.03C104.24 34.7 104.42 34.25 104.42 33.67L104.42 33.02L103.46 33.06C102.72 33.09 102.17 33.22 101.83 33.44Q101.65 33.56 101.53 33.73Q101.33 34.02 101.33 34.46C101.33 34.79 101.42 35.05 101.62 35.23C101.82 35.41 102.12 35.5 102.51 35.5ZM128.28 35.5Q129.02 35.5 129.5 35.16L129.5 35.15Q129.59 35.09 129.66 35.03C130.01 34.7 130.19 34.25 130.19 33.67L130.19 33.02L129.23 33.06C128.48 33.09 127.94 33.22 127.6 33.44Q127.42 33.56 127.3 33.73Q127.09 34.02 127.09 34.46C127.09 34.79 127.19 35.05 127.39 35.23C127.59 35.41 127.88 35.5 128.28 35.5ZM71.1 34.29C71.1 33.93 70.96 33.68 70.68 33.53C70.4 33.38 69.98 33.3 69.43 33.3L67.6 33.3L67.6 35.41L69.47 35.41C70.55 35.41 71.1 35.04 71.1 34.29Z" fill="#FFFFFF" fill-opacity="1.000000" fill-rule="evenodd"/>
	<path id="Blanchard" d="M0 21.59L11.66 21.59C16.26 21.59 18.61 19.51 18.61 15.55L18.61 15.48C18.61 12.54 17.11 10.75 14.23 10.24L14.23 9.96C16.64 9.5 17.91 7.92 17.91 5.36L17.91 5.29C17.91 1.8 15.71 0 11.41 0L0 0L0 21.59ZM22.94 0L22.94 21.59L27.48 21.59L27.48 0L22.94 0ZM97.52 21.59L102.05 21.59L102.05 14.07C102.05 10.42 103.77 8.19 106.65 8.19C108.79 8.19 109.85 9.27 109.85 11.37L109.85 21.59L114.38 21.59L114.38 10.29C114.38 6.89 112.36 5.1 108.63 5.1C105.2 5.1 102.89 6.58 101.54 9.65L101.21 9.53C101.82 7.8 102.04 6.52 102.05 4.99L102.05 0L97.52 0L97.52 21.59ZM162.24 21.89C165.61 21.89 167.8 20.34 168.91 17.55L169.24 17.66C168.71 19.36 168.43 20.7 168.41 21.59L173 21.59L173 0L168.46 0L168.46 4.39C168.46 6.09 168.69 7.46 169.25 9.33L168.94 9.45C167.84 6.68 165.62 5.07 162.24 5.07C157.56 5.07 155.1 7.89 155.1 13.29L155.1 13.68C155.1 19.06 157.56 21.89 162.24 21.89ZM4.59 8.84L4.59 3.05L10.03 3.05C12.23 3.05 13.32 4.01 13.32 5.89L13.32 5.95C13.32 7.86 12.23 8.84 10.03 8.84L4.59 8.84ZM140.66 21.59L145.2 21.59L145.2 14.82C145.2 10.59 146.53 9.04 149.99 8.79L152.22 8.62L151.69 4.89C148.02 5.16 146.32 6.3 144.64 9.67L144.34 9.53C145.02 7.53 145.22 6.64 145.22 5.63C145.22 5.55 145.22 5.48 145.22 5.39L140.66 5.39L140.66 21.59ZM84.2 21.98C89.55 21.98 92.54 19.85 93 15.73L88.41 15.22C88.23 17.81 86.79 19.13 84.22 19.13C81.33 19.13 79.84 17.34 79.84 13.8L79.84 13.05C79.84 9.59 81.35 7.85 84.17 7.85C86.78 7.85 88.13 9.28 88.33 12.15L92.86 11.64C92.5 7.28 89.61 5.01 84.19 5.01C78.29 5.01 75.19 7.86 75.19 13.32L75.19 13.53C75.19 19.08 78.26 21.98 84.2 21.98ZM36.97 22C40.63 22 43.3 20.38 44.28 17.63L44.59 17.71C44.47 18.34 44.4 18.9 44.4 19.38C44.4 21.19 45.38 22 48.21 22C48.66 22 49.11 21.95 49.49 21.89L50.02 19.22L49.24 19.2C48.38 19.19 48.13 18.99 48.13 17.89L48.13 10.47C48.13 6.8 45.67 5.04 40.42 5.04C35.05 5.04 32.23 7.05 32.23 10.55C32.23 10.69 32.24 10.84 32.25 10.98L36.72 11.35C36.71 11.19 36.7 11.04 36.7 10.89C36.7 8.73 37.97 7.74 40.32 7.74C42.57 7.74 43.63 8.56 43.63 10.42L43.63 11.33L39.2 12.14C34.77 12.95 31.84 14.34 31.84 17.74L31.84 17.78C31.84 20.47 33.68 22 36.97 22ZM123.8 22C127.46 22 130.13 20.38 131.11 17.63L131.42 17.71C131.3 18.34 131.23 18.9 131.23 19.38C131.23 21.19 132.21 22 135.04 22C135.49 22 135.94 21.95 136.32 21.89L136.85 19.22L136.07 19.2C135.21 19.19 134.96 18.99 134.96 17.89L134.96 10.47C134.96 6.8 132.5 5.04 127.24 5.04C121.88 5.04 119.06 7.05 119.06 10.55C119.06 10.69 119.07 10.84 119.07 10.98L123.55 11.35C123.54 11.19 123.53 11.04 123.53 10.89C123.53 8.73 124.8 7.74 127.15 7.74C129.39 7.74 130.45 8.56 130.45 10.42L130.45 11.33L126.03 12.14C121.6 12.95 118.67 14.34 118.67 17.74L118.67 17.78C118.67 20.47 120.51 22 123.8 22ZM53.84 21.59L58.37 21.59L58.37 14.07C58.37 10.42 60.1 8.17 62.97 8.17C65.11 8.17 66.17 9.27 66.17 11.37L66.17 21.59L70.7 21.59L70.7 10.29C70.7 6.89 68.69 5.1 64.95 5.1C61.55 5.1 59.23 6.58 57.86 9.67L57.55 9.53C58.17 7.69 58.39 6.6 58.39 5.39L53.84 5.39L53.84 21.59ZM163.95 19.11C161.15 19.11 159.68 17.34 159.68 13.83L159.68 13.12C159.68 9.61 161.15 7.82 163.95 7.82C166.88 7.82 168.46 9.7 168.46 13.2L168.46 13.76C168.46 17.24 166.88 19.11 163.95 19.11ZM4.59 18.52L4.59 11.64L10.18 11.64C12.59 11.64 13.79 12.78 13.79 15.02L13.79 15.08C13.79 17.37 12.59 18.52 10.18 18.52L4.59 18.52ZM38.78 19C37.25 19 36.42 18.46 36.42 17.35L36.42 17.32C36.42 15.73 37.87 15.08 40.74 14.53L43.63 13.97L43.63 14.73C43.63 17.21 41.37 19 38.78 19ZM125.61 19C124.08 19 123.25 18.46 123.25 17.35L123.25 17.32C123.25 15.73 124.7 15.08 127.57 14.53L130.45 13.97L130.45 14.73C130.45 17.21 128.19 19 125.61 19Z" fill="#FFFFFF" fill-opacity="1.000000" fill-rule="evenodd"/>
</svg>
