<svg width="188.000000" height="42.000000" viewBox="0 0 188 42" fill="none" xmlns="http://www.w3.org/2000/svg" xmlns:xlink="http://www.w3.org/1999/xlink">
	<desc>
			Created with Pixso.
	</desc>
	<defs/>
	<path d="M33.91 34.57Q33.91 36.36 33.03 37.41L33.03 37.42Q32.96 37.49 32.89 37.57C32.21 38.29 31.27 38.65 30.06 38.65C29.31 38.65 28.64 38.48 28.06 38.15C27.48 37.82 27.04 37.34 26.72 36.73Q26.26 35.8 26.26 34.57C26.26 33.3 26.59 32.3 27.27 31.59C27.94 30.88 28.88 30.52 30.11 30.52Q31.4 30.52 32.29 31.11Q32.61 31.33 32.88 31.62C33.57 32.35 33.91 33.33 33.91 34.57ZM51.46 38.65C50.2 38.65 49.22 38.29 48.51 37.58C47.8 36.87 47.45 35.89 47.45 34.64C47.45 33.36 47.78 32.35 48.43 31.62C49.09 30.89 49.99 30.52 51.14 30.52C52.21 30.52 53.05 30.83 53.67 31.46C54.29 32.09 54.6 32.96 54.6 34.06L54.6 34.96L49.22 34.96C49.24 35.72 49.45 36.31 49.85 36.72C50.25 37.12 50.81 37.33 51.54 37.33C52.02 37.33 52.46 37.29 52.87 37.2C53.28 37.11 53.73 36.96 54.2 36.76L54.2 38.12Q53.57 38.41 52.93 38.53C52.5 38.61 52.01 38.65 51.46 38.65ZM59.81 38.65C58.59 38.65 57.66 38.3 57.02 37.61C56.39 36.92 56.07 35.92 56.07 34.63C56.07 33.31 56.4 32.29 57.06 31.58C57.73 30.87 58.69 30.52 59.95 30.52C60.8 30.52 61.57 30.67 62.25 30.98L61.73 32.32C61.01 32.05 60.41 31.91 59.93 31.91C58.54 31.91 57.84 32.81 57.84 34.61C57.84 35.49 58.01 36.15 58.36 36.6C58.71 37.04 59.22 37.26 59.89 37.26C60.66 37.26 61.38 37.07 62.06 36.7L62.06 38.16C61.75 38.33 61.43 38.46 61.07 38.53Q60.56 38.65 59.81 38.65ZM84.16 38.65C82.91 38.65 81.92 38.29 81.21 37.58C80.51 36.87 80.15 35.89 80.15 34.64Q80.15 32.8 81.06 31.71Q81.1 31.66 81.14 31.62C81.8 30.89 82.7 30.52 83.85 30.52Q85.13 30.52 85.98 31.13Q86.19 31.28 86.38 31.46C87 32.09 87.31 32.96 87.31 34.06L87.31 34.96L81.92 34.96C81.95 35.72 82.16 36.31 82.56 36.72C82.96 37.12 83.52 37.33 84.24 37.33C84.72 37.33 85.17 37.29 85.57 37.2C85.99 37.11 86.43 36.96 86.9 36.76L86.9 38.12C86.49 38.31 86.06 38.45 85.63 38.53C85.2 38.61 84.71 38.65 84.16 38.65ZM113.72 38.51L113.38 37.41L113.32 37.41C112.93 37.89 112.54 38.22 112.14 38.39C111.75 38.56 111.24 38.65 110.62 38.65Q109.51 38.65 108.85 38.1Q108.8 38.06 108.76 38.02C108.32 37.61 108.1 37.02 108.1 36.26C108.1 35.45 108.4 34.84 109.02 34.43C109.64 34.02 110.58 33.79 111.85 33.75L113.25 33.71L113.25 33.29C113.25 32.79 113.12 32.42 112.88 32.17C112.64 31.92 112.27 31.8 111.76 31.8C111.35 31.8 110.95 31.86 110.57 31.97C110.19 32.09 109.83 32.23 109.48 32.39L108.92 31.2C109.36 30.98 109.84 30.81 110.36 30.7C110.88 30.58 111.37 30.52 111.84 30.52C112.86 30.52 113.64 30.74 114.16 31.17C114.69 31.61 114.95 32.29 114.95 33.22L114.95 38.51L113.72 38.51ZM141.66 38.51L141.32 37.41L141.26 37.41C140.87 37.89 140.48 38.22 140.08 38.39C139.69 38.56 139.18 38.65 138.57 38.65C137.77 38.65 137.15 38.44 136.7 38.02C136.26 37.61 136.04 37.02 136.04 36.26C136.04 35.45 136.35 34.84 136.96 34.43C137.58 34.02 138.53 33.79 139.79 33.75L141.19 33.71L141.19 33.29C141.19 32.79 141.07 32.42 140.82 32.17C140.58 31.92 140.21 31.8 139.7 31.8C139.29 31.8 138.89 31.86 138.51 31.97C138.13 32.09 137.77 32.23 137.42 32.39L136.86 31.2C137.3 30.98 137.78 30.81 138.3 30.7C138.82 30.58 139.32 30.52 139.78 30.52C140.81 30.52 141.58 30.74 142.1 31.17C142.63 31.61 142.89 32.29 142.89 33.22L142.89 38.51L141.66 38.51ZM157.92 38.65C156.66 38.65 155.68 38.29 154.97 37.58C154.26 36.87 153.91 35.89 153.91 34.64Q153.91 32.8 154.82 31.71Q154.86 31.66 154.9 31.62C155.55 30.89 156.46 30.52 157.61 30.52C158.67 30.52 159.52 30.83 160.14 31.46C160.75 32.09 161.06 32.96 161.06 34.06L161.06 34.96L155.68 34.96C155.7 35.72 155.91 36.31 156.31 36.72C156.71 37.12 157.28 37.33 158 37.33C158.48 37.33 158.92 37.29 159.33 37.2C159.75 37.11 160.19 36.96 160.66 36.76L160.66 38.12C160.24 38.31 159.82 38.45 159.39 38.53C158.96 38.61 158.47 38.65 157.92 38.65ZM167.11 38.65C166.09 38.65 165.3 38.29 164.73 37.58L164.63 37.58Q164.73 38.57 164.73 38.78L164.73 42L163.01 42L163.01 30.66L164.4 30.66Q164.46 30.88 164.64 31.71L164.73 31.71C165.27 30.92 166.07 30.52 167.14 30.52C168.15 30.52 168.94 30.87 169.5 31.58C170.06 32.29 170.34 33.29 170.34 34.57C170.34 35.85 170.06 36.85 169.48 37.57Q169.16 37.97 168.74 38.23Q168.06 38.65 167.11 38.65ZM175.87 38.65C174.61 38.65 173.63 38.29 172.91 37.58C172.21 36.87 171.86 35.89 171.86 34.64Q171.86 32.8 172.76 31.71Q172.8 31.66 172.84 31.62Q173.11 31.32 173.44 31.1L173.44 31.1Q174.3 30.52 175.55 30.52C176.62 30.52 177.46 30.83 178.08 31.46C178.7 32.09 179.01 32.96 179.01 34.06L179.01 34.96L173.62 34.96C173.65 35.72 173.86 36.31 174.26 36.72C174.66 37.12 175.22 37.33 175.95 37.33C176.42 37.33 176.87 37.29 177.28 37.2C177.69 37.11 178.13 36.96 178.61 36.76L178.61 38.12C178.19 38.31 177.76 38.45 177.34 38.53C176.91 38.61 176.42 38.65 175.87 38.65ZM3.02 34.5L0.31 30.66L2.27 30.66L4.11 33.41L5.97 30.66L7.91 30.66L5.19 34.5L8.05 38.51L6.1 38.51L4.11 35.57L2.12 38.51L0.18 38.51L3.02 34.5ZM8.24 30.66L10.11 30.66L11.75 35.11C12 35.74 12.17 36.34 12.25 36.9L12.31 36.9C12.35 36.64 12.43 36.32 12.55 35.95Q12.72 35.39 14.4 30.66L16.26 30.66L12.8 39.55C12.18 41.18 11.13 42 9.66 42C9.28 42 8.91 41.95 8.55 41.87L8.55 40.56C8.81 40.61 9.11 40.64 9.44 40.64Q9.89 40.64 10.25 40.45Q10.86 40.13 11.18 39.24L11.48 38.51L8.24 30.66ZM25.24 41.28L23.64 41.28L23.64 38.51L18.1 38.51L18.1 41.28L16.52 41.28L16.52 37.21L17.17 37.21Q18.04 36.02 18.54 34.32C18.88 33.19 19.08 31.97 19.15 30.66L24.06 30.66L24.06 37.21L25.24 37.21L25.24 41.28ZM39.87 34.47L39.87 30.66L41.47 30.66L41.47 34.47L44.58 30.66L46.39 30.66L43.22 34.46L46.68 38.51L44.79 38.51L41.47 34.53L41.47 38.51L39.87 38.51L39.87 34.53L36.56 38.51L34.67 38.51L38.13 34.46L34.96 30.66L36.77 30.66L39.87 34.47ZM70.03 30.66L70.03 31.97L67.4 31.97L67.4 38.51L65.68 38.51L65.68 31.97L63.05 31.97L63.05 30.66L70.03 30.66ZM78.6 32.67C78.6 33.6 78.05 34.16 76.93 34.35L76.93 34.41C77.55 34.48 78.03 34.67 78.36 34.98C78.69 35.29 78.86 35.7 78.86 36.19C78.86 36.94 78.57 37.51 77.98 37.91C77.4 38.31 76.56 38.51 75.45 38.51L71.59 38.51L71.59 30.66L75.43 30.66Q77.7 30.66 78.34 31.68Q78.6 32.09 78.6 32.67ZM90.97 30.66L90.97 33.81L94.78 33.81L94.78 30.66L96.5 30.66L96.5 38.51L94.78 38.51L94.78 35.12L90.97 35.12L90.97 38.51L89.26 38.51L89.26 30.66L90.97 30.66ZM100.68 30.66L100.68 33.81L104.49 33.81L104.49 30.66L106.2 30.66L106.2 38.51L104.49 38.51L104.49 35.12L100.68 35.12L100.68 38.51L98.96 38.51L98.96 30.66L100.68 30.66ZM118.17 38.51L116.25 38.51L118.5 35.29C117.95 35.14 117.53 34.87 117.21 34.48C116.9 34.09 116.75 33.61 116.75 33.03C116.75 32.29 117.02 31.71 117.56 31.29C118.11 30.87 118.86 30.66 119.8 30.66L123.48 30.66L123.48 38.51L121.76 38.51L121.76 35.48L120.13 35.48L118.17 38.51ZM135.05 30.66L135.05 31.97L131.54 31.97L131.54 38.51L129.83 38.51L129.83 30.66L135.05 30.66ZM151.93 38.51L150.2 38.51L150.2 31.97L147.97 31.97C147.83 33.65 147.65 34.96 147.41 35.91C147.18 36.86 146.88 37.55 146.51 37.98C146.14 38.42 145.66 38.63 145.06 38.63C144.69 38.63 144.37 38.58 144.12 38.48L144.12 37.17C144.3 37.24 144.48 37.27 144.66 37.27C145.16 37.27 145.55 36.73 145.83 35.65C146.12 34.56 146.34 32.9 146.5 30.66L151.93 30.66L151.93 38.51ZM181.79 38.51L179.86 38.51L182.11 35.29C181.57 35.14 181.14 34.87 180.83 34.48C180.52 34.09 180.36 33.61 180.36 33.03C180.36 32.29 180.63 31.71 181.18 31.29C181.72 30.87 182.47 30.66 183.42 30.66L187.1 30.66L187.1 38.51L185.37 38.51L185.37 35.48L183.74 35.48L181.79 38.51ZM51.14 31.78C50.6 31.78 50.16 31.95 49.83 32.29C49.5 32.62 49.31 33.11 49.24 33.75L52.91 33.75C52.9 33.11 52.74 32.62 52.43 32.29C52.12 31.95 51.69 31.78 51.14 31.78ZM83.85 31.78C83.3 31.78 82.87 31.95 82.54 32.29C82.21 32.62 82.01 33.11 81.95 33.75L85.62 33.75C85.61 33.11 85.45 32.62 85.14 32.29Q85.03 32.17 84.89 32.07Q84.47 31.78 83.85 31.78ZM157.61 31.78C157.06 31.78 156.62 31.95 156.29 32.29Q155.8 32.79 155.71 33.75L159.38 33.75C159.37 33.11 159.2 32.62 158.89 32.29C158.58 31.95 158.15 31.78 157.61 31.78ZM175.55 31.78C175.01 31.78 174.57 31.95 174.24 32.29Q173.75 32.79 173.65 33.75L177.32 33.75C177.31 33.11 177.15 32.62 176.84 32.29C176.53 31.95 176.1 31.78 175.55 31.78ZM28.03 34.57Q28.03 36.29 28.85 36.92Q29.33 37.29 30.09 37.29C31.46 37.29 32.14 36.38 32.14 34.57C32.14 32.78 31.45 31.88 30.08 31.88C29.36 31.88 28.83 32.11 28.51 32.58C28.19 33.04 28.03 33.7 28.03 34.57ZM166.7 31.88C166.01 31.88 165.52 32.08 165.2 32.46C164.89 32.85 164.73 33.47 164.73 34.32L164.73 34.57C164.73 35.52 164.89 36.22 165.2 36.65C165.51 37.07 166.02 37.29 166.73 37.29C167.32 37.29 167.78 37.05 168.1 36.58C168.42 36.1 168.58 35.43 168.58 34.56C168.58 33.68 168.42 33.01 168.1 32.56C167.78 32.11 167.32 31.88 166.7 31.88ZM76.89 32.81C76.89 32.5 76.76 32.27 76.51 32.14C76.26 31.99 75.89 31.92 75.39 31.92L73.31 31.92L73.31 33.81L75.13 33.81C75.71 33.81 76.14 33.74 76.44 33.6C76.74 33.45 76.89 33.19 76.89 32.81ZM118.42 33.04C118.42 33.45 118.58 33.75 118.89 33.95C119.2 34.15 119.63 34.25 120.16 34.25L121.76 34.25L121.76 31.92L119.89 31.92C119.42 31.92 119.06 32.02 118.8 32.21C118.55 32.41 118.42 32.68 118.42 33.04ZM182.03 33.04C182.03 33.45 182.19 33.75 182.5 33.95C182.82 34.15 183.24 34.25 183.77 34.25L185.37 34.25L185.37 31.92L183.5 31.92C183.04 31.92 182.67 32.02 182.41 32.21C182.16 32.41 182.03 32.68 182.03 33.04ZM22.37 37.21L22.37 31.94L20.63 31.94C20.54 32.91 20.34 33.87 20.05 34.82Q19.61 36.24 18.97 37.21L22.37 37.21ZM111.16 37.37C111.79 37.37 112.29 37.2 112.66 36.87C113.04 36.53 113.23 36.05 113.23 35.44L113.23 34.76L112.19 34.8C111.39 34.83 110.8 34.96 110.43 35.2C110.06 35.43 109.88 35.79 109.88 36.27C109.88 36.62 109.99 36.89 110.2 37.09Q110.52 37.37 111.16 37.37ZM139.11 37.37C139.73 37.37 140.23 37.2 140.6 36.87C140.98 36.53 141.17 36.05 141.17 35.44L141.17 34.76L140.14 34.8C139.33 34.83 138.74 34.96 138.37 35.2C138 35.43 137.82 35.79 137.82 36.27C137.82 36.62 137.93 36.89 138.14 37.09Q138.46 37.37 139.11 37.37ZM77.1 36.09C77.1 35.72 76.95 35.45 76.65 35.29C76.34 35.13 75.89 35.05 75.29 35.05L73.31 35.05L73.31 37.27L75.33 37.27C76.51 37.27 77.1 36.88 77.1 36.09Z" fill="#FFFFFF" fill-opacity="1.000000" fill-rule="evenodd"/>
	<path d="M0 22.73L12.64 22.73C17.63 22.73 20.18 20.54 20.18 16.36L20.18 16.3C20.18 13.2 18.56 11.31 15.43 10.78L15.43 10.49C18.05 10 19.42 8.34 19.42 5.65L19.42 5.56C19.42 1.89 17.04 0 12.37 0L0 0L0 22.73ZM24.88 0L24.88 22.73L29.8 22.73L29.8 0L24.88 0ZM105.75 22.73L110.67 22.73L110.67 14.8C110.67 10.97 112.52 8.62 115.65 8.62C117.97 8.62 119.12 9.75 119.12 11.96L119.12 22.73L124.04 22.73L124.04 10.83C124.04 7.25 121.84 5.37 117.8 5.37C114.08 5.37 111.58 6.93 110.11 10.16L109.75 10.03C110.41 8.21 110.65 6.86 110.67 5.26L110.67 0L105.75 0L105.75 22.73ZM175.93 23.04C179.58 23.04 181.97 21.41 183.17 18.47L183.52 18.59C182.95 20.37 182.64 21.79 182.63 22.73L187.6 22.73L187.6 0L182.68 0L182.68 4.62C182.68 6.41 182.93 7.85 183.54 9.82L183.2 9.95C182 7.03 179.6 5.34 175.93 5.34C170.86 5.34 168.19 8.31 168.19 13.99L168.19 14.4C168.19 20.07 170.86 23.04 175.93 23.04ZM4.98 9.3L4.98 3.21L10.88 3.21C13.27 3.21 14.45 4.22 14.45 6.2L14.45 6.26C14.45 8.28 13.27 9.3 10.88 9.3L4.98 9.3ZM152.53 22.73L157.46 22.73L157.46 15.6C157.46 11.15 158.89 9.51 162.64 9.25L165.06 9.07L164.49 5.14C160.52 5.43 158.67 6.64 156.85 10.18L156.53 10.03C157.26 7.92 157.48 6.99 157.48 5.93C157.48 5.85 157.47 5.76 157.47 5.68L152.53 5.68L152.53 22.73ZM91.31 23.14C97.11 23.14 100.35 20.89 100.85 16.56L95.87 16.02C95.67 18.75 94.12 20.13 91.33 20.13C88.2 20.13 86.58 18.25 86.58 14.53L86.58 13.73C86.58 10.1 88.22 8.26 91.28 8.26C94.1 8.26 95.57 9.77 95.79 12.79L100.69 12.26C100.3 7.66 97.18 5.27 91.29 5.27C84.9 5.27 81.54 8.28 81.54 14.03L81.54 14.24C81.54 20.08 84.87 23.14 91.31 23.14ZM40.09 23.15C44.06 23.15 46.95 21.45 48.02 18.56L48.36 18.64C48.22 19.3 48.14 19.89 48.14 20.4C48.14 22.3 49.21 23.15 52.28 23.15C52.77 23.15 53.26 23.1 53.67 23.04L54.24 20.23L53.4 20.21C52.47 20.2 52.2 19.98 52.2 18.83L52.2 11.02C52.2 7.16 49.52 5.31 43.83 5.31C38.01 5.31 34.95 7.42 34.95 11.11C34.95 11.26 34.96 11.41 34.97 11.56L39.82 11.95C39.81 11.78 39.8 11.62 39.8 11.46C39.8 9.19 41.18 8.15 43.73 8.15C46.16 8.15 47.31 9.01 47.31 10.97L47.31 11.93L42.51 12.77C37.71 13.64 34.53 15.1 34.53 18.67L34.53 18.72C34.53 21.54 36.52 23.15 40.09 23.15ZM134.25 23.15C138.22 23.15 141.11 21.45 142.17 18.56L142.51 18.64C142.38 19.3 142.3 19.89 142.3 20.4C142.3 22.3 143.37 23.15 146.43 23.15C146.92 23.15 147.42 23.1 147.82 23.04L148.39 20.23L147.55 20.21C146.62 20.2 146.35 19.98 146.35 18.83L146.35 11.02C146.35 7.16 143.68 5.31 137.98 5.31C132.16 5.31 129.11 7.42 129.11 11.11C129.11 11.26 129.11 11.41 129.12 11.56L133.98 11.95C133.96 11.78 133.96 11.62 133.96 11.46C133.96 9.19 135.33 8.15 137.88 8.15C140.32 8.15 141.46 9.01 141.46 10.97L141.46 11.93L136.66 12.77C131.86 13.64 128.68 15.1 128.68 18.67L128.68 18.72C128.68 21.54 130.68 23.15 134.25 23.15ZM58.38 22.73L63.3 22.73L63.3 14.8C63.3 10.97 65.18 8.6 68.29 8.6C70.6 8.6 71.75 9.75 71.75 11.96L71.75 22.73L76.67 22.73L76.67 10.83C76.67 7.25 74.49 5.37 70.43 5.37C66.75 5.37 64.23 6.93 62.74 10.18L62.4 10.03C63.08 8.1 63.32 6.95 63.32 5.68L58.38 5.68L58.38 22.73ZM177.79 20.11C174.75 20.11 173.16 18.25 173.16 14.56L173.16 13.81C173.16 10.11 174.75 8.23 177.79 8.23C180.97 8.23 182.68 10.21 182.68 13.9L182.68 14.48C182.68 18.15 180.97 20.11 177.79 20.11ZM4.98 19.5L4.98 12.26L11.03 12.26C13.65 12.26 14.96 13.46 14.96 15.81L14.96 15.88C14.96 18.28 13.65 19.5 11.03 19.5L4.98 19.5ZM42.05 20C40.39 20 39.5 19.43 39.5 18.26L39.5 18.23C39.5 16.56 41.07 15.88 44.18 15.29L47.31 14.71L47.31 15.5C47.31 18.12 44.86 20 42.05 20ZM136.21 20C134.55 20 133.65 19.43 133.65 18.26L133.65 18.23C133.65 16.56 135.23 15.88 138.34 15.29L141.46 14.71L141.46 15.5C141.46 18.12 139.01 20 136.21 20Z" fill="#FFFFFF" fill-opacity="1.000000" fill-rule="evenodd"/>
</svg>
