<svg width="97.000000" height="22.000000" viewBox="0 0 97 22" fill="none" xmlns="http://www.w3.org/2000/svg" xmlns:xlink="http://www.w3.org/1999/xlink">
	<desc>
			Created with Pixso.
	</desc>
	<defs/>
	<path d="M17.49 18.11C17.49 18.78 17.32 19.3 16.97 19.68Q16.86 19.8 16.73 19.89Q16.25 20.24 15.51 20.24C15.12 20.24 14.78 20.15 14.48 19.98C14.18 19.81 13.95 19.56 13.79 19.23Q13.55 18.75 13.55 18.11Q13.55 17.16 14.01 16.61L14.01 16.61Q14.04 16.58 14.07 16.54C14.41 16.17 14.9 15.98 15.53 15.98C16.14 15.98 16.61 16.18 16.97 16.56C17.32 16.94 17.49 17.46 17.49 18.11ZM26.55 20.24C25.9 20.24 25.39 20.06 25.03 19.68Q24.95 19.61 24.89 19.53Q24.48 18.99 24.48 18.14C24.48 17.47 24.65 16.94 24.99 16.56Q25.14 16.39 25.32 16.28Q25.76 15.98 26.39 15.98C26.94 15.98 27.37 16.15 27.69 16.48C28.01 16.81 28.17 17.26 28.17 17.84L28.17 18.31L25.39 18.31C25.41 18.71 25.52 19.02 25.72 19.23C25.93 19.44 26.22 19.55 26.59 19.55C26.84 19.55 27.07 19.53 27.28 19.48C27.49 19.44 27.72 19.36 27.96 19.25L27.96 19.96C27.75 20.06 27.53 20.14 27.31 20.18C27.09 20.22 26.83 20.24 26.55 20.24ZM30.86 20.24C30.23 20.24 29.75 20.06 29.42 19.7Q28.93 19.15 28.93 18.14C28.93 17.44 29.1 16.91 29.44 16.54C29.79 16.17 30.28 15.98 30.93 15.98C31.37 15.98 31.77 16.06 32.12 16.23L31.85 16.93C31.48 16.78 31.17 16.71 30.92 16.71Q30.53 16.71 30.27 16.9Q29.84 17.23 29.84 18.13C29.84 18.59 29.93 18.94 30.11 19.17C30.29 19.4 30.56 19.51 30.9 19.51C31.3 19.51 31.67 19.42 32.02 19.22L32.02 19.99C31.86 20.08 31.69 20.14 31.51 20.18C31.33 20.22 31.12 20.24 30.86 20.24ZM43.43 20.24C42.78 20.24 42.27 20.06 41.9 19.68C41.54 19.31 41.36 18.8 41.36 18.14C41.36 17.47 41.53 16.94 41.87 16.56C42.21 16.18 42.67 15.98 43.26 15.98C43.82 15.98 44.25 16.15 44.57 16.48C44.89 16.81 45.05 17.26 45.05 17.84L45.05 18.31L42.27 18.31C42.28 18.71 42.39 19.02 42.6 19.23Q42.64 19.28 42.69 19.32L42.69 19.32Q42.99 19.55 43.47 19.55C43.71 19.55 43.94 19.53 44.15 19.48C44.37 19.44 44.6 19.36 44.84 19.25L44.84 19.96C44.62 20.06 44.41 20.14 44.18 20.18C43.96 20.22 43.71 20.24 43.43 20.24ZM58.68 20.17L58.5 19.6L58.47 19.6C58.27 19.85 58.07 20.02 57.86 20.11C57.66 20.2 57.4 20.24 57.08 20.24C56.67 20.24 56.35 20.13 56.12 19.91C55.89 19.7 55.77 19.39 55.77 18.99C55.77 18.57 55.93 18.25 56.25 18.03C56.57 17.82 57.06 17.7 57.71 17.68L58.43 17.66L58.43 17.44C58.43 17.17 58.37 16.98 58.24 16.85C58.12 16.72 57.93 16.65 57.67 16.65C57.45 16.65 57.25 16.68 57.05 16.75C56.86 16.81 56.67 16.88 56.49 16.96L56.2 16.34C56.43 16.22 56.67 16.14 56.94 16.08C57.21 16.01 57.47 15.98 57.71 15.98C58.24 15.98 58.64 16.1 58.9 16.33C59.18 16.55 59.31 16.91 59.31 17.4L59.31 20.17L58.68 20.17ZM73.1 20.17L72.92 19.6L72.89 19.6C72.69 19.85 72.48 20.02 72.28 20.11C72.08 20.2 71.82 20.24 71.5 20.24C71.09 20.24 70.77 20.13 70.54 19.91C70.31 19.7 70.19 19.39 70.19 18.99C70.19 18.57 70.35 18.25 70.67 18.03C70.99 17.82 71.48 17.7 72.13 17.68L72.85 17.66L72.85 17.44C72.85 17.17 72.79 16.98 72.66 16.85C72.54 16.72 72.35 16.65 72.08 16.65C71.87 16.65 71.67 16.68 71.47 16.75C71.27 16.81 71.09 16.88 70.9 16.96L70.62 16.34C70.84 16.22 71.09 16.14 71.36 16.08Q71.76 15.98 72.12 15.98C72.65 15.98 73.05 16.1 73.32 16.33C73.59 16.55 73.73 16.91 73.73 17.4L73.73 20.17L73.1 20.17ZM81.48 20.24C80.84 20.24 80.33 20.06 79.96 19.68C79.6 19.31 79.41 18.8 79.41 18.14C79.41 17.47 79.58 16.94 79.92 16.56C80.26 16.18 80.73 15.98 81.32 15.98C81.87 15.98 82.31 16.15 82.63 16.48C82.95 16.81 83.11 17.26 83.11 17.84L83.11 18.31L80.33 18.31C80.34 18.71 80.45 19.02 80.66 19.23C80.86 19.44 81.15 19.55 81.53 19.55C81.77 19.55 82 19.53 82.21 19.48C82.43 19.44 82.65 19.36 82.9 19.25L82.9 19.96C82.68 20.06 82.46 20.14 82.24 20.18Q81.91 20.24 81.48 20.24ZM86.23 20.24Q85.72 20.24 85.36 20.01Q85.16 19.88 85 19.68L84.95 19.68C84.98 20.03 85 20.24 85 20.31L85 22L84.11 22L84.11 16.06L84.83 16.06C84.85 16.14 84.89 16.32 84.95 16.61L85 16.61Q85.16 16.37 85.38 16.22Q85.73 15.98 86.24 15.98C86.76 15.98 87.17 16.17 87.46 16.54C87.75 16.91 87.89 17.43 87.89 18.11Q87.89 19.11 87.45 19.68Q87.28 19.9 87.05 20.03Q86.7 20.24 86.23 20.24ZM90.74 20.24C90.1 20.24 89.59 20.06 89.22 19.68C88.86 19.31 88.67 18.8 88.67 18.14Q88.67 17.16 89.16 16.59L89.16 16.59Q89.17 16.57 89.18 16.56C89.52 16.18 89.99 15.98 90.58 15.98C91.13 15.98 91.57 16.15 91.89 16.48C92.21 16.81 92.37 17.26 92.37 17.84L92.37 18.31L89.59 18.31C89.6 18.71 89.71 19.02 89.91 19.23C90.12 19.44 90.41 19.55 90.79 19.55C91.03 19.55 91.26 19.53 91.47 19.48C91.69 19.44 91.91 19.36 92.16 19.25L92.16 19.96C91.94 20.06 91.72 20.14 91.5 20.18C91.28 20.22 91.03 20.24 90.74 20.24ZM1.56 18.07L0.16 16.06L1.17 16.06L2.12 17.5L3.08 16.06L4.08 16.06L2.68 18.07L4.15 20.17L3.15 20.17L2.12 18.63L1.09 20.17L0.09 20.17L1.56 18.07ZM4.25 16.06L5.21 16.06L6.06 18.39C6.19 18.72 6.28 19.03 6.32 19.32L6.35 19.32C6.37 19.19 6.41 19.02 6.47 18.83C6.53 18.63 6.85 17.71 7.43 16.06L8.39 16.06L6.61 20.71C6.28 21.57 5.74 22 4.98 22Q4.69 22 4.41 21.93L4.41 21.24C4.54 21.27 4.7 21.29 4.87 21.29C5.29 21.29 5.6 21.04 5.77 20.55L5.92 20.17L4.25 16.06ZM13.02 21.62L12.2 21.62L12.2 20.17L9.34 20.17L9.34 21.62L8.52 21.62L8.52 19.49L8.86 19.49Q9.31 18.86 9.57 17.98Q9.83 17.08 9.88 16.06L12.41 16.06L12.41 19.49L13.02 19.49L13.02 21.62ZM20.57 18.05L20.57 16.06L21.4 16.06L21.4 18.05L23 16.06L23.94 16.06L22.3 18.05L24.08 20.17L23.11 20.17L21.4 18.08L21.4 20.17L20.57 20.17L20.57 18.08L18.86 20.17L17.89 20.17L19.67 18.05L18.04 16.06L18.97 16.06L20.57 18.05ZM36.14 16.06L36.14 16.74L34.78 16.74L34.78 20.17L33.89 20.17L33.89 16.74L32.53 16.74L32.53 16.06L36.14 16.06ZM40.56 17.11C40.56 17.6 40.27 17.89 39.69 17.99L39.69 18.02C40.02 18.06 40.26 18.16 40.43 18.32C40.6 18.48 40.69 18.7 40.69 18.96C40.69 19.34 40.54 19.64 40.24 19.86C39.94 20.06 39.5 20.17 38.93 20.17L36.94 20.17L36.94 16.06L38.92 16.06Q40.08 16.06 40.42 16.59Q40.56 16.8 40.56 17.11ZM46.94 16.06L46.94 17.71L48.91 17.71L48.91 16.06L49.79 16.06L49.79 20.17L48.91 20.17L48.91 18.4L46.94 18.4L46.94 20.17L46.05 20.17L46.05 16.06L46.94 16.06ZM51.95 16.06L51.95 17.71L53.91 17.71L53.91 16.06L54.8 16.06L54.8 20.17L53.91 20.17L53.91 18.4L51.95 18.4L51.95 20.17L51.06 20.17L51.06 16.06L51.95 16.06ZM60.97 20.17L59.98 20.17L61.14 18.48C60.86 18.41 60.64 18.26 60.48 18.06C60.32 17.86 60.24 17.6 60.24 17.3C60.24 16.91 60.38 16.61 60.66 16.39C60.94 16.17 61.33 16.06 61.81 16.06L63.71 16.06L63.71 20.17L62.83 20.17L62.83 18.58L61.98 18.58L60.97 20.17ZM69.68 16.06L69.68 16.74L67.87 16.74L67.87 20.17L66.99 20.17L66.99 16.06L69.68 16.06ZM78.39 20.17L77.5 20.17L77.5 16.74L76.35 16.74C76.28 17.62 76.18 18.31 76.06 18.81C75.94 19.3 75.79 19.66 75.6 19.89C75.4 20.12 75.16 20.23 74.85 20.23C74.66 20.23 74.49 20.21 74.36 20.15L74.36 19.47C74.46 19.5 74.55 19.52 74.64 19.52C74.9 19.52 75.1 19.24 75.24 18.67C75.39 18.1 75.51 17.23 75.59 16.06L78.39 16.06L78.39 20.17ZM93.8 20.17L92.81 20.17L93.97 18.48C93.69 18.41 93.47 18.26 93.3 18.06C93.14 17.86 93.06 17.6 93.06 17.3C93.06 16.91 93.2 16.61 93.49 16.39C93.77 16.17 94.15 16.06 94.64 16.06L96.54 16.06L96.54 20.17L95.65 20.17L95.65 18.58L94.81 18.58L93.8 20.17ZM26.39 16.65C26.11 16.65 25.88 16.73 25.71 16.91C25.54 17.08 25.44 17.34 25.41 17.68L27.3 17.68C27.3 17.34 27.21 17.08 27.05 16.91C26.89 16.73 26.67 16.65 26.39 16.65ZM43.26 16.65C42.98 16.65 42.76 16.73 42.59 16.91C42.42 17.08 42.32 17.34 42.28 17.68L44.18 17.68Q44.17 17.17 43.93 16.91C43.77 16.73 43.55 16.65 43.26 16.65ZM81.32 16.65C81.04 16.65 80.81 16.73 80.64 16.91C80.48 17.08 80.37 17.34 80.34 17.68L82.23 17.68C82.23 17.34 82.15 17.08 81.99 16.91C81.83 16.73 81.6 16.65 81.32 16.65ZM90.58 16.65Q90.28 16.65 90.06 16.78Q89.98 16.84 89.9 16.91C89.74 17.08 89.63 17.34 89.6 17.68L91.49 17.68C91.49 17.34 91.41 17.08 91.25 16.91C91.08 16.73 90.86 16.65 90.58 16.65ZM14.46 18.11Q14.46 19.02 14.9 19.34Q15.14 19.53 15.53 19.53Q15.9 19.53 16.14 19.35Q16.58 19.02 16.58 18.11C16.58 17.17 16.23 16.7 15.52 16.7C15.15 16.7 14.88 16.82 14.71 17.06Q14.46 17.43 14.46 18.11ZM86.01 16.7C85.66 16.7 85.4 16.8 85.24 17C85.08 17.2 85 17.53 85 17.98L85 18.11C85 18.61 85.08 18.97 85.24 19.19C85.4 19.42 85.66 19.53 86.03 19.53C86.33 19.53 86.57 19.4 86.74 19.16Q86.99 18.79 86.99 18.1Q86.99 17.41 86.74 17.05C86.57 16.82 86.33 16.7 86.01 16.7ZM39.67 17.18C39.67 17.02 39.61 16.9 39.48 16.83C39.35 16.76 39.16 16.72 38.9 16.72L37.82 16.72L37.82 17.71L38.77 17.71C39.06 17.71 39.29 17.67 39.44 17.6C39.6 17.52 39.67 17.38 39.67 17.18ZM61.1 17.31C61.1 17.52 61.18 17.68 61.34 17.78C61.51 17.89 61.73 17.94 62 17.94L62.83 17.94L62.83 16.72L61.86 16.72C61.62 16.72 61.43 16.77 61.3 16.87C61.17 16.97 61.1 17.12 61.1 17.31ZM93.93 17.31C93.93 17.52 94.01 17.68 94.17 17.78C94.33 17.89 94.55 17.94 94.82 17.94L95.65 17.94L95.65 16.72L94.68 16.72C94.44 16.72 94.26 16.77 94.12 16.87C93.99 16.97 93.93 17.12 93.93 17.31ZM11.54 19.49L11.54 16.73L10.64 16.73C10.6 17.24 10.5 17.74 10.34 18.24Q10.12 18.98 9.79 19.49L11.54 19.49ZM57.36 19.57C57.68 19.57 57.94 19.48 58.13 19.31C58.33 19.13 58.43 18.88 58.43 18.56L58.43 18.21L57.89 18.23C57.47 18.24 57.17 18.31 56.98 18.44C56.79 18.56 56.69 18.74 56.69 19C56.69 19.18 56.75 19.32 56.86 19.42C56.97 19.52 57.14 19.57 57.36 19.57ZM71.78 19.57C72.1 19.57 72.36 19.48 72.55 19.31C72.75 19.13 72.84 18.88 72.84 18.56L72.84 18.21L72.31 18.23C71.89 18.24 71.59 18.31 71.39 18.44C71.21 18.56 71.11 18.74 71.11 19C71.11 19.18 71.17 19.32 71.28 19.42Q71.44 19.57 71.78 19.57ZM39.78 18.9C39.78 18.71 39.7 18.57 39.55 18.48C39.39 18.4 39.16 18.36 38.85 18.36L37.82 18.36L37.82 19.52L38.87 19.52C39.48 19.52 39.78 19.32 39.78 18.9Z" fill="#FFFFFF" fill-opacity="1.000000" fill-rule="evenodd"/>
	<path d="M0 11.9L6.52 11.9C9.09 11.9 10.41 10.76 10.41 8.57L10.41 8.54C10.41 6.91 9.57 5.92 7.96 5.64L7.96 5.49C9.31 5.23 10.02 4.37 10.02 2.96L10.02 2.91C10.02 0.99 8.79 0 6.38 0L0 0L0 11.9ZM12.83 0L12.83 11.9L15.37 11.9L15.37 0L12.83 0ZM54.56 11.9L57.1 11.9L57.1 7.75C57.1 5.75 58.06 4.51 59.67 4.51C60.87 4.51 61.46 5.11 61.46 6.26L61.46 11.9L64 11.9L64 5.67C64 3.8 62.87 2.81 60.78 2.81C58.86 2.81 57.57 3.63 56.81 5.32L56.63 5.25C56.97 4.3 57.09 3.59 57.1 2.75L57.1 0L54.56 0L54.56 11.9ZM90.78 12.07C92.66 12.07 93.89 11.21 94.51 9.67L94.69 9.73C94.4 10.67 94.24 11.41 94.23 11.9L96.79 11.9L96.79 0L94.26 0L94.26 2.42C94.26 3.35 94.39 4.11 94.7 5.14L94.53 5.21C93.91 3.68 92.67 2.79 90.78 2.79C88.16 2.79 86.78 4.35 86.78 7.33L86.78 7.54C86.78 10.51 88.16 12.07 90.78 12.07ZM2.57 4.87L2.57 1.68L5.61 1.68C6.84 1.68 7.45 2.21 7.45 3.24L7.45 3.28C7.45 4.33 6.84 4.87 5.61 4.87L2.57 4.87ZM78.7 11.9L81.24 11.9L81.24 8.17C81.24 5.84 81.98 4.98 83.92 4.84L85.17 4.75L84.87 2.69C82.82 2.84 81.87 3.47 80.93 5.33L80.76 5.25C81.14 4.15 81.25 3.66 81.25 3.1C81.25 3.06 81.25 3.02 81.25 2.97L78.7 2.97L78.7 11.9ZM47.11 12.12C50.1 12.12 51.78 10.94 52.03 8.67L49.47 8.39C49.36 9.82 48.56 10.54 47.12 10.54C45.51 10.54 44.67 9.56 44.67 7.61L44.67 7.19C44.67 5.29 45.52 4.32 47.1 4.32C48.55 4.32 49.31 5.12 49.42 6.7L51.95 6.42C51.75 4.01 50.14 2.76 47.1 2.76C43.81 2.76 42.07 4.33 42.07 7.34L42.07 7.45C42.07 10.52 43.79 12.12 47.11 12.12ZM20.68 12.12C22.73 12.12 24.23 11.23 24.78 9.72L24.95 9.76C24.88 10.11 24.84 10.42 24.84 10.68C24.84 11.68 25.39 12.12 26.97 12.12C27.23 12.12 27.48 12.1 27.69 12.07L27.99 10.59L27.55 10.59C27.07 10.58 26.93 10.47 26.93 9.86L26.93 5.77C26.93 3.75 25.55 2.78 22.61 2.78C19.61 2.78 18.03 3.89 18.03 5.82C18.03 5.89 18.04 5.97 18.04 6.05L20.54 6.26C20.54 6.17 20.53 6.08 20.53 6C20.53 4.81 21.25 4.27 22.56 4.27C23.82 4.27 24.41 4.72 24.41 5.75L24.41 6.25L21.93 6.69C19.45 7.14 17.81 7.91 17.81 9.78L17.81 9.8C17.81 11.28 18.84 12.12 20.68 12.12ZM69.27 12.12C71.32 12.12 72.81 11.23 73.36 9.72L73.53 9.76C73.46 10.11 73.42 10.42 73.42 10.68C73.42 11.68 73.97 12.12 75.56 12.12C75.81 12.12 76.06 12.1 76.27 12.07L76.57 10.59L76.13 10.59C75.65 10.58 75.51 10.47 75.51 9.86L75.51 5.77C75.51 3.75 74.13 2.78 71.2 2.78C68.19 2.78 66.62 3.89 66.62 5.82C66.62 5.89 66.62 5.97 66.62 6.05L69.13 6.26C69.12 6.17 69.12 6.08 69.12 6C69.12 4.81 69.83 4.27 71.14 4.27C72.4 4.27 72.99 4.72 72.99 5.75L72.99 6.25L70.51 6.69C68.04 7.14 66.4 7.91 66.4 9.78L66.4 9.8C66.4 11.28 67.43 12.12 69.27 12.12ZM30.12 11.9L32.66 11.9L32.66 7.75C32.66 5.75 33.63 4.5 35.23 4.5C36.43 4.5 37.02 5.11 37.02 6.26L37.02 11.9L39.56 11.9L39.56 5.67C39.56 3.8 38.43 2.81 36.34 2.81C34.44 2.81 33.14 3.63 32.37 5.33L32.2 5.25C32.55 4.24 32.67 3.64 32.67 2.97L30.12 2.97L30.12 11.9ZM91.74 10.53C90.17 10.53 89.35 9.56 89.35 7.62L89.35 7.23C89.35 5.29 90.17 4.31 91.74 4.31C93.38 4.31 94.26 5.35 94.26 7.28L94.26 7.58C94.26 9.5 93.38 10.53 91.74 10.53ZM2.57 10.21L2.57 6.42L5.69 6.42C7.04 6.42 7.71 7.05 7.71 8.28L7.71 8.31C7.71 9.57 7.04 10.21 5.69 10.21L2.57 10.21ZM21.7 10.47C20.84 10.47 20.38 10.18 20.38 9.56L20.38 9.55C20.38 8.67 21.19 8.31 22.79 8.01L24.41 7.7L24.41 8.12C24.41 9.49 23.14 10.47 21.7 10.47ZM70.28 10.47C69.42 10.47 68.96 10.18 68.96 9.56L68.96 9.55C68.96 8.67 69.77 8.31 71.38 8.01L72.99 7.7L72.99 8.12C72.99 9.49 71.73 10.47 70.28 10.47Z" fill="#FFFFFF" fill-opacity="1.000000" fill-rule="evenodd"/>
</svg>
