<svg width="60.000000" height="60.000000" viewBox="0 0 60 60" fill="none" xmlns="http://www.w3.org/2000/svg" xmlns:xlink="http://www.w3.org/1999/xlink">
	<desc>
			Created with Pixso.
	</desc>
	<defs/>
	<rect id="ok" width="60.000000" height="60.000000" fill="#FFFFFF" fill-opacity="0"/>
	<path id="ok" d="M60 30C60 46.56 46.56 60 30 60C13.43 60 0 46.56 0 30C0 13.43 13.43 0 30 0C46.56 0 60 13.43 60 30ZM30.18 9.14C24.2 9.14 19.35 13.99 19.35 19.98C19.35 25.96 24.2 30.81 30.18 30.81C36.16 30.81 41.01 25.96 41.01 19.98C41.01 13.99 36.16 9.14 30.18 9.14ZM30.18 24.46C27.71 24.46 25.7 22.45 25.7 19.98C25.7 17.5 27.71 15.5 30.18 15.5C32.65 15.5 34.66 17.5 34.66 19.98C34.66 22.45 32.65 24.46 30.18 24.46ZM34 39.43C38.34 38.55 40.94 36.49 41.08 36.38C42.35 35.37 42.55 33.51 41.53 32.24C40.51 30.97 38.66 30.77 37.39 31.79C37.36 31.81 34.59 33.93 30.03 33.94C25.47 33.93 22.64 31.81 22.61 31.79C21.34 30.77 19.49 30.97 18.47 32.24C17.45 33.51 17.66 35.37 18.93 36.38C19.07 36.5 21.77 38.6 26.23 39.47L20.02 45.96C18.89 47.13 18.92 49 20.09 50.12C20.67 50.68 21.4 50.95 22.14 50.95C22.91 50.95 23.68 50.65 24.26 50.05L30.03 43.9L36.39 50.09C37.54 51.24 39.4 51.24 40.55 50.09C41.7 48.93 41.7 47.07 40.55 45.92L34 39.43Z" fill="#CACACA" fill-opacity="1.000000" fill-rule="evenodd"/>
</svg>
