<svg width="28.000000" height="28.000000" viewBox="0 0 28 28" fill="none" xmlns="http://www.w3.org/2000/svg" xmlns:xlink="http://www.w3.org/1999/xlink">
	<desc>
			Created with Pixso.
	</desc>
	<defs/>
	<rect id="Rectangle 3" width="8.795645" height="2.198911" transform="matrix(-0.711314 0.702874 0.711314 0.702874 6.25647 20.2722)" fill="#FFFFFF" fill-opacity="1.000000"/>
	<path id="Ellipse 1 (Stroke)" d="M15.32 23.31C9.54 23.31 5.06 18.54 5.06 12.95C5.06 7.35 9.54 2.59 15.32 2.59C21.11 2.59 25.59 7.35 25.59 12.95C25.59 18.54 21.11 23.31 15.32 23.31ZM15.32 25.9C8.33 25.9 2.65 20.1 2.65 12.95C2.65 5.79 8.33 0 15.32 0C22.32 0 28 5.79 28 12.95C28 20.1 22.32 25.9 15.32 25.9Z" fill="#FFFFFF" fill-opacity="1.000000" fill-rule="evenodd"/>
</svg>
