<svg width="40.000000" height="40.000000" viewBox="0 0 40 40" fill="none" xmlns="http://www.w3.org/2000/svg" xmlns:xlink="http://www.w3.org/1999/xlink">
	<desc>
			Created with Pixso.
	</desc>
	<defs>
		<clipPath id="clip191243_651">
			<rect width="40.000000" height="40.000000" fill="white" fill-opacity="0"/>
		</clipPath>
	</defs>
	<rect width="40.000000" height="40.000000" fill="#FFFFFF" fill-opacity="0"/>
	<g clip-path="url(#clip191243_651)">
		<path d="M40 20C40 31.04 31.04 40 20 40C8.95 40 0 31.04 0 20C0 8.95 8.95 0 20 0C31.04 0 40 8.95 40 20Z" fill="#26A5E4" fill-opacity="1.000000" fill-rule="evenodd"/>
		<path d="M9.05 19.78L20.71 14.76C26.27 12.45 27.42 12.05 28.17 12.04C28.34 12.03 28.71 12.07 28.95 12.27C29.15 12.43 29.21 12.65 29.23 12.81C29.26 12.96 29.29 13.32 29.27 13.6C28.96 16.76 27.66 24.43 27 27.98C26.72 29.47 26.17 29.98 25.63 30.03C24.47 30.13 23.59 29.26 22.46 28.52L18 25.52C16.03 24.22 17.31 23.51 18.43 22.34C18.73 22.03 23.84 17.38 23.94 16.95C23.95 16.9 23.97 16.71 23.85 16.6C23.73 16.5 23.56 16.53 23.44 16.56C23.26 16.6 20.45 18.46 15 22.14C14.2 22.69 13.48 22.95 12.83 22.94C12.12 22.92 10.74 22.53 9.72 22.2C8.47 21.8 7.47 21.58 7.56 20.89C7.61 20.53 8.1 20.16 9.05 19.78L9.05 19.78Z" fill="#FFFFFF" fill-opacity="1.000000" fill-rule="evenodd"/>
	</g>
</svg>
