<svg width="60.000000" height="60.000000" viewBox="0 0 60 60" fill="none" xmlns="http://www.w3.org/2000/svg" xmlns:xlink="http://www.w3.org/1999/xlink">
	<desc>
			Created with Pixso.
	</desc>
	<defs/>
	<path d="M30 0C13.43 0 0 13.43 0 30C0 46.56 13.43 60 30 60C46.56 60 60 46.56 60 30C60 13.43 46.56 0 30 0ZM45.21 33.24C46.61 34.61 48.09 35.89 49.35 37.4C49.9 38.06 50.43 38.75 50.82 39.53C51.39 40.63 50.88 41.85 49.89 41.91L43.74 41.91C42.16 42.04 40.89 41.4 39.83 40.32C38.98 39.45 38.19 38.53 37.37 37.63C37.04 37.27 36.68 36.92 36.26 36.65C35.43 36.1 34.7 36.27 34.22 37.15C33.73 38.04 33.62 39.02 33.57 40.02C33.5 41.46 33.07 41.84 31.61 41.91C28.51 42.06 25.56 41.59 22.82 40.02C20.4 38.64 18.53 36.69 16.9 34.48C13.72 30.18 11.29 25.45 9.11 20.59C8.62 19.5 8.98 18.91 10.18 18.89C12.19 18.85 14.2 18.86 16.2 18.89C17.02 18.9 17.56 19.37 17.87 20.14C18.96 22.81 20.29 25.34 21.95 27.7C22.39 28.32 22.85 28.95 23.49 29.39C24.2 29.88 24.75 29.72 25.08 28.92C25.3 28.42 25.39 27.88 25.44 27.34C25.6 25.48 25.62 23.63 25.34 21.78C25.17 20.62 24.52 19.88 23.37 19.66C22.78 19.55 22.86 19.33 23.15 19C23.65 18.42 24.11 18.06 25.04 18.06L31.98 18.06C33.08 18.27 33.32 18.76 33.47 19.87L33.48 27.58C33.46 28.01 33.69 29.27 34.46 29.55C35.07 29.75 35.47 29.26 35.84 28.87C37.51 27.11 38.69 25.02 39.76 22.86C40.22 21.91 40.63 20.93 41.02 19.94C41.31 19.21 41.77 18.85 42.59 18.86L49.28 18.87C49.48 18.87 49.68 18.87 49.87 18.91C51 19.1 51.31 19.58 50.96 20.68C50.41 22.41 49.34 23.85 48.3 25.29C47.18 26.84 45.99 28.33 44.89 29.88C43.87 31.29 43.95 32.01 45.21 33.24Z" fill="#CACACA" fill-opacity="1.000000" fill-rule="nonzero"/>
</svg>
