<svg width="40.000000" height="40.000000" viewBox="0 0 40 40" fill="none" xmlns="http://www.w3.org/2000/svg" xmlns:xlink="http://www.w3.org/1999/xlink">
	<desc>
			Created with Pixso.
	</desc>
	<defs>
		<clipPath id="clip191243_648">
			<rect width="40.000000" height="40.000000" fill="white" fill-opacity="0"/>
		</clipPath>
	</defs>
	<rect width="40.000000" height="40.000000" fill="#FFFFFF" fill-opacity="0"/>
	<g clip-path="url(#clip191243_648)">
		<path d="M39.37 20C39.37 30.7 30.7 39.37 20 39.37C9.29 39.37 0.62 30.7 0.62 20C0.62 9.29 9.29 0.62 20 0.62C30.7 0.62 39.37 9.29 39.37 20Z" fill="#30BF39" fill-opacity="1.000000" fill-rule="evenodd"/>
		<path d="M25.87 21.75C25.62 21.62 24.31 20.87 24.06 20.81C23.81 20.68 23.62 20.68 23.43 20.93C23.24 21.18 22.68 21.81 22.56 21.93C22.37 22.12 22.24 22.12 21.99 22C21.74 21.87 20.87 21.56 19.87 20.56C19.12 19.81 18.56 18.93 18.43 18.62C18.31 18.37 18.43 18.18 18.56 18.06C18.68 17.93 18.81 17.75 18.99 17.62C19.18 17.5 19.18 17.37 19.31 17.18C19.43 17 19.37 16.87 19.31 16.68C19.24 16.5 18.74 15.18 18.56 14.62C18.37 14.06 18.12 14.18 17.99 14.12C17.81 14.12 17.68 14.06 17.49 14.06C17.24 14.06 16.93 14.18 16.74 14.37C16.49 14.62 15.74 15.25 15.74 16.56C15.74 17.87 16.62 19.25 16.74 19.37C16.87 19.56 18.49 22.43 21.18 23.62C23.87 24.81 23.87 24.43 24.37 24.43C24.87 24.43 25.99 23.81 26.24 23.25C26.49 22.62 26.49 22.06 26.43 22C26.31 22 26.12 21.93 25.87 21.75ZM20.87 28.18C19.12 28.18 17.49 27.68 16.06 26.75L12.68 27.81L13.81 24.56C12.74 23.06 12.12 21.25 12.12 19.37C12.12 14.5 16.06 10.56 20.93 10.56C25.81 10.56 29.68 14.5 29.68 19.37C29.68 24.25 25.74 28.18 20.87 28.18ZM20.87 8.81C15.06 8.81 10.31 13.56 10.31 19.37C10.31 21.31 10.81 23.18 11.81 24.81L9.87 30.5L15.74 28.62C17.31 29.5 19.06 29.93 20.87 29.93C26.68 29.93 31.43 25.18 31.43 19.37C31.43 13.56 26.74 8.81 20.87 8.81Z" fill="#FFFFFF" fill-opacity="1.000000" fill-rule="nonzero"/>
	</g>
</svg>
